<svg viewBox="0 0 238 97" width="100%" xmlns="http://www.w3.org/2000/svg"><g fill="var(--secondary)"><path d="M120.86 19.67l-6.44 22.97h-.77l-6.38-16.76 -6.5 16.75h-.74l-6.32-22.98h2.72l4.31 15.86 6.12-15.87h.73l6.06 15.89 4.41-15.9h2.72Z"/><path d="M142.8 42.1h-.8l-14.22-16.27v16.26h-2.7V19.66h.79l14.3 16.48V19.65h2.6v22.42Z"/><path fill="var(--secondary)" fill-rule="evenodd" d="M87.41 0h63.16v53.1h-1.54V1.52H88.94v3.31H87.4V-.02Zm0 10.11h1.53v50.97h60.08v-2.73h1.53v4.25H87.38V10.08Z"/><path d="M5.49 96.67c-.13-.4-.33-1.04-.6-1.9 -.26-.87-.56-1.84-.89-2.93 -.34-1.09-.69-2.23-1.056-3.41 -.37-1.2-.72-2.34-1.06-3.41 -.34-1.09-.65-2.07-.94-2.93 -.272-.87-.49-1.51-.65-1.92 .2.03.4.06.6.09 .19.01.39.02.59.02 .2 0 .4-.01.6-.03 .19-.04.39-.07.6-.1 .3 1.21.6 2.36.88 3.43 .28 1.05.59 2.13.91 3.24 .33 1.08.68 2.24 1.056 3.45 .38 1.2.81 2.56 1.29 4.08h.04c.14-.44.34-1.03.6-1.78 .25-.77.53-1.61.84-2.52 .3-.93.62-1.89.96-2.88 .33-1 .64-1.94.93-2.84 .28-.92.54-1.74.76-2.48 .22-.76.38-1.33.48-1.73 .32.08.58.12.79.12 .2 0 .47-.04.79-.12 .11.43.28 1.02.5 1.77 .24.75.5 1.59.79 2.52 .28.91.59 1.86.91 2.85 .33.99.65 1.94.96 2.85 .3.91.57 1.73.81 2.47 .25.73.45 1.31.6 1.72h.04c.11-.36.28-.9.5-1.64 .24-.76.5-1.6.79-2.52 .3-.95.6-1.93.91-2.96 .32-1.04.61-2.03.88-2.96 .28-.95.53-1.79.74-2.52 .22-.74.37-1.28.45-1.64 .14.03.28.06.4.09 .14.01.28.02.43.02 .14 0 .28-.01.4-.03 .14-.04.28-.07.43-.1 -.16.36-.4.97-.7 1.82 -.31.84-.65 1.81-1.032 2.9 -.37 1.08-.76 2.24-1.18 3.45 -.4 1.21-.8 2.37-1.18 3.48 -.37 1.08-.71 2.07-1.01 2.95 -.29.86-.51 1.48-.65 1.87 -.26-.04-.53-.05-.82-.05 -.29 0-.56.01-.82.04 -.72-2.23-1.44-4.46-2.14-6.7 -.71-2.26-1.47-4.59-2.28-6.99h-.05c-.13.36-.31.86-.53 1.48 -.21.6-.45 1.29-.72 2.06 -.26.76-.54 1.59-.84 2.47 -.31.88-.61 1.76-.92 2.66 -.31.89-.6 1.77-.89 2.64 -.29.86-.56 1.64-.8 2.35 -.26-.04-.54-.05-.84-.05 -.31 0-.59.01-.84.04Z"/><path d="M39.336 87.98c0-2.28-.01-4.03-.03-5.256 -.02-1.24-.06-2.08-.12-2.55 .17.03.34.06.5.09 .16.01.32.02.48.02 .2 0 .44-.04.72-.12 -.05.56-.1 1.23-.15 2.01 -.05.76-.09 1.6-.12 2.49 -.04.88-.07 1.79-.1 2.73 -.04.92-.06 1.83-.08 2.71 -.02 1.07-.19 2.03-.51 2.88 -.31.84-.75 1.56-1.32 2.16 -.58.59-1.29 1.04-2.14 1.34 -.84.3-1.8.45-2.88.45 -2.4 0-4.15-.55-5.24-1.64 -1.09-1.09-1.64-2.81-1.64-5.16 0-.76.01-1.42.04-2 .04-.6.07-1.2.07-1.8 0-1.35-.02-2.54-.05-3.58 -.04-1.04-.07-1.92-.1-2.64 .19.03.4.06.62.09 .22.01.43.02.62.02 .17 0 .34-.01.5-.03 .17-.04.35-.07.52-.1 -.04.35-.07.81-.1 1.39 -.04.56-.07 1.2-.1 1.92 -.04.72-.06 1.49-.08 2.32 -.02.83-.03 1.69-.03 2.59 0 .54 0 1.11.02 1.7 .01.57.07 1.14.16 1.7 .09.54.24 1.07.45 1.58 .22.49.53.93.93 1.32 .4.36.9.66 1.51.88 .6.2 1.36.31 2.25.31 .88 0 1.61-.13 2.2-.39 .6-.26 1.1-.6 1.48-1.01 .38-.42.68-.9.88-1.44 .22-.55.38-1.12.48-1.71 .09-.6.15-1.19.16-1.78 .01-.6.02-1.14.02-1.64Z"/><path d="M49.32 86.4c0-1.67-.03-3.32-.08-4.97 -.42 0-.86 0-1.32.02 -.45 0-.91.01-1.37.04 -.45.01-.89.04-1.32.07 -.42.03-.8.07-1.13.12 .08-.29.12-.55.12-.77 0-.18-.04-.43-.12-.75 1.05.03 2.08.06 3.09.09 1 .01 2.04.02 3.09.02 1.05 0 2.08-.01 3.09-.03 1-.04 2.04-.07 3.09-.1 -.08.32-.12.57-.12.76 0 .2.04.45.12.74 -.34-.05-.72-.09-1.16-.12 -.42-.04-.86-.06-1.32-.08 -.45-.04-.91-.05-1.37-.05 -.45-.02-.88-.03-1.3-.03 -.05 1.64-.08 3.3-.08 4.96v4.12c0 1.05.01 2.09.04 3.12 .04 1.02.09 2.03.14 3.02 -.37-.04-.76-.05-1.18-.05 -.42 0-.81.01-1.18.04 .04-1 .08-2 .12-3.03 .04-1.03.07-2.07.07-3.12v-4.13Z"/><path d="M71.8 86.4c0-1.06-.03-2.09-.08-3.1 -.04-1.03-.08-2.07-.12-3.12 .2.03.4.06.6.09 .19.01.38.02.57.02 .19 0 .38-.01.57-.03 .19-.04.39-.07.6-.1 -.05 1.05-.1 2.09-.15 3.12 -.04 1-.05 2.04-.05 3.09v4.12c0 1.05.01 2.09.04 3.12 .04 1.02.09 2.03.14 3.02 -.37-.04-.76-.05-1.18-.05 -.42 0-.81.01-1.18.04 .04-1 .08-2 .12-3.03 .04-1.03.07-2.07.07-3.12v-2.16c-.87-.02-1.71-.03-2.52-.03 -.8-.02-1.64-.03-2.5-.03 -.87 0-1.71 0-2.52.02 -.8 0-1.64 0-2.5.02v2.16c0 1.05.01 2.09.04 3.12 .04 1.02.09 2.03.14 3.02 -.37-.04-.76-.05-1.18-.05 -.42 0-.81.01-1.18.04 .04-1 .08-2 .12-3.03 .04-1.03.07-2.07.07-3.12V86.3c0-1.06-.03-2.09-.08-3.1 -.04-1.03-.08-2.07-.12-3.12 .2.03.4.06.6.09 .19.01.38.02.57.02 .19 0 .38-.01.57-.03 .19-.04.39-.07.6-.1 -.05 1.05-.1 2.09-.15 3.12 -.04 1-.05 2.04-.05 3.09v.84c.86.01 1.69.03 2.49.04 .81.01 1.65.02 2.52.02 .86 0 1.69-.01 2.49-.03 .81-.02 1.65-.04 2.52-.05v-.84Z"/><path d="M78.96 86.4c0-1.06-.03-2.09-.08-3.1 -.04-1.03-.08-2.07-.12-3.12 .2.03.4.06.6.09 .19.01.38.02.57.02 .19 0 .38-.01.57-.03 .19-.04.39-.07.6-.1 -.05 1.05-.1 2.09-.15 3.12 -.04 1-.05 2.04-.05 3.09v4.12c0 1.05.01 2.09.04 3.12 .04 1.02.09 2.03.14 3.02 -.37-.04-.76-.05-1.18-.05 -.42 0-.81.01-1.18.04 .04-1 .08-2 .12-3.03 .04-1.03.07-2.07.07-3.12v-4.13Z"/><path d="M86.127 86.38c0-1.06-.03-2.1-.08-3.12 -.04-1.03-.08-2.05-.12-3.08 .72.03 1.43.06 2.13.09 .72.01 1.44.02 2.16.02 .72 0 1.43-.01 2.13-.03 .7-.04 1.41-.07 2.13-.1 -.05.24-.08.48-.08.72s.02.48.07.72c-.52-.04-.99-.07-1.42-.1 -.42-.04-.87-.07-1.35-.1 -.47-.04-.98-.06-1.54-.08 -.56-.04-1.24-.05-2.02-.05 -.02.51-.04 1-.08 1.46 -.02.46-.03.99-.03 1.58 0 .62 0 1.23 0 1.82 .01.59.02 1.04.02 1.34 .7 0 1.33-.01 1.89-.03 .56-.02 1.07-.04 1.53-.05 .46-.04.88-.06 1.27-.08 .4-.04.77-.07 1.12-.1 -.05.24-.08.48-.08.74 0 .24.02.48.07.72 -.42-.05-.91-.09-1.47-.12 -.55-.04-1.1-.05-1.66-.05 -.55-.02-1.07-.03-1.56-.03 -.48-.02-.87-.03-1.16-.03 0 .14-.01.3-.03.48 0 .16 0 .36 0 .62v2.37c0 .91 0 1.66 0 2.25 .01.59.03 1.04.04 1.34 .52 0 1.08 0 1.68 0 .6 0 1.2-.01 1.77-.03 .59-.04 1.14-.07 1.65-.1 .52-.05.98-.12 1.36-.2 -.04.11-.06.24-.08.38 0 .12 0 .24 0 .36 0 .25.02.46.07.62 -.72-.04-1.44-.05-2.16-.05 -.71 0-1.43 0-2.16 0 -.74 0-1.47 0-2.19 0s-1.45.01-2.19.04c.04-1.03.08-2.04.12-3.05 .04-1.03.07-2.07.07-3.12V86.22Z"/><path d="M98.6 86.4c0-1.06-.03-2.09-.08-3.1 -.04-1.03-.08-2.07-.12-3.12 .46.03.92.06 1.36.09 .44.01.9.02 1.36.02 .46 0 .92-.02 1.36-.05 .44-.05.9-.08 1.36-.08 .67 0 1.31.06 1.92.19 .6.12 1.13.34 1.58.64 .46.28.82.67 1.08 1.15 .27.48.4 1.08.4 1.8 0 .76-.18 1.43-.53 1.99 -.34.54-.76 1-1.25 1.36 -.5.35-1.04.63-1.61.84 -.56.19-1.08.32-1.54.38 .19.24.45.57.79 1 .33.43.71.91 1.12 1.44 .41.51.84 1.05 1.29 1.63 .44.56.88 1.1 1.29 1.63 .41.51.8.98 1.17 1.41 .36.43.66.76.88.98 -.24-.04-.48-.05-.72-.05s-.48 0-.72 0c-.23 0-.46 0-.7 0 -.24 0-.48.01-.7.04 -.24-.34-.61-.84-1.11-1.52 -.48-.68-1.02-1.4-1.61-2.16 -.6-.77-1.2-1.53-1.83-2.28 -.61-.77-1.17-1.42-1.68-1.95h-.92v1.75c0 1.05.01 2.09.04 3.12 .04 1.02.09 2.03.14 3.02 -.37-.04-.76-.05-1.18-.05 -.42 0-.81.01-1.18.04 .04-1 .08-2 .12-3.03 .04-1.03.07-2.07.07-3.12v-4.13Zm1.96 1.36c.22.04.46.08.72.09 .27.01.56.02.88.02 .49 0 1-.06 1.53-.17 .54-.12 1.04-.31 1.48-.58 .44-.29.81-.67 1.1-1.13 .3-.48.45-1.08.45-1.8 0-.63-.12-1.14-.36-1.54 -.23-.42-.52-.75-.89-.99s-.77-.4-1.2-.48c-.44-.1-.86-.15-1.28-.15 -.56 0-1.03.01-1.4.04 -.37.01-.68.04-.94.07 -.04.88-.07 1.75-.1 2.61 -.04.86-.05 1.72-.05 2.59v1.36Z"/><path d="M122.23 92.57c0 .43.08.85.26 1.27 .17.4.41.76.72 1.08 .32.3.69.55 1.12.74 .43.17.9.26 1.41.26 .81 0 1.51-.15 2.08-.44 .57-.31 1.14-.74 1.7-1.3 -.82-.96-1.6-1.92-2.33-2.86 -.74-.95-1.47-1.92-2.19-2.93 -.88.52-1.57 1.1-2.07 1.72 -.5.62-.75 1.43-.75 2.42Zm.79-8.48c0-.52.08-.99.26-1.42 .19-.44.44-.81.76-1.13 .33-.34.72-.6 1.17-.77 .44-.2.94-.29 1.48-.29 .92 0 1.68.23 2.28.69 .6.44.91 1.11.91 1.99 0 .44-.11.88-.32 1.29 -.21.41-.48.8-.82 1.17 -.32.35-.68.68-1.06.98 -.39.28-.76.53-1.11.74 .72.92 1.42 1.84 2.11 2.73 .68.88 1.39 1.71 2.11 2.49 .57-.82 1.09-1.6 1.56-2.33 .48-.76.91-1.56 1.29-2.43 .09.2.22.39.38.55 .17.14.35.28.52.4 -.5.76-1 1.51-1.49 2.23 -.5.72-1.08 1.46-1.76 2.23l3.07 3.38c-.26-.04-.52-.05-.77-.05 -.26 0-.52 0-.77 0 -.23 0-.46 0-.7 0 -.23 0-.45.01-.68.04 -.13-.18-.33-.44-.6-.8 -.26-.37-.56-.76-.92-1.18 -.71.7-1.47 1.26-2.28 1.68 -.8.4-1.77.6-2.91.6 -.63 0-1.22-.08-1.78-.24 -.55-.15-1.03-.39-1.44-.72 -.42-.34-.76-.76-1.01-1.25 -.24-.52-.36-1.11-.36-1.78 0-.53.11-1.04.33-1.54 .22-.52.52-1 .91-1.44 .4-.47.86-.88 1.39-1.25 .52-.37 1.1-.68 1.72-.94 -.47-.68-.85-1.32-1.16-1.92 -.31-.61-.46-1.22-.46-1.83Zm5.64-.94c0-.58-.18-1.05-.53-1.42 -.34-.39-.8-.58-1.4-.58 -.63 0-1.12.21-1.49.64 -.37.43-.56.96-.56 1.6 0 .48.13 1.04.4 1.68 .28.64.65 1.23 1.1 1.77 .81-.52 1.42-1.11 1.82-1.78 .41-.69.62-1.34.62-1.95Z"/><path d="M159.39 96.98c-1.84-2.128-3.8-4.31-5.88-6.53 -2.08-2.24-4.16-4.47-6.24-6.68 -.02.44-.04 1.04-.05 1.8 -.02.75-.03 1.77-.03 3.07 0 .33 0 .75 0 1.24 .01.49.02 1.01.02 1.56 .01.54.03 1.09.04 1.65 .01.56.03 1.08.04 1.56 .01.48.03.9.04 1.27 .01.35.03.59.04.72 -.26-.04-.54-.05-.84-.05 -.32 0-.62.01-.89.04 .03-.16.06-.46.09-.89 .04-.44.08-.95.12-1.54 .03-.61.06-1.27.09-1.97 .04-.71.08-1.41.09-2.12 .03-.71.05-1.4.07-2.07 .01-.68.02-1.28.02-1.8 0-1.54-.01-2.86-.03-3.96 0-1.11-.02-1.93-.05-2.48h.38c.97 1.05 2.01 2.19 3.12 3.4 1.12 1.2 2.22 2.39 3.31 3.57 1.1 1.16 2.14 2.28 3.12 3.33 .99 1.04 1.85 1.92 2.59 2.66v-3.27c0-1.68-.02-3.32-.05-4.9 -.02-1.6-.07-3.11-.15-4.52 .32.08.59.12.81.12 .19 0 .44-.04.76-.12 -.04.35-.08.88-.12 1.58 -.04.7-.08 1.45-.12 2.25 -.04.8-.07 1.58-.1 2.35 -.04.76-.05 1.38-.05 1.84 0 .4 0 .88 0 1.44 0 .54 0 1.11 0 1.7 .01.59.02 1.19.02 1.8 .01.59.02 1.15.02 1.68 .01.51.02.96.02 1.34 0 .35 0 .61 0 .79h-.34Z"/><path d="M165.038 86.4c0-1.06-.03-2.09-.08-3.1 -.04-1.03-.08-2.07-.12-3.12 .2.03.4.06.6.09 .19.01.38.02.57.02 .19 0 .38-.01.57-.03 .19-.04.39-.07.6-.1 -.05 1.05-.1 2.09-.15 3.12 -.04 1-.05 2.04-.05 3.09v4.12c0 1.05.01 2.09.04 3.12 .04 1.02.09 2.03.14 3.02 -.37-.04-.76-.05-1.18-.05 -.42 0-.81.01-1.18.04 .04-1 .08-2 .12-3.03 .04-1.03.07-2.07.07-3.12v-4.13Z"/><path d="M184.6 95.69c-.15.12-.38.27-.7.43 -.31.14-.68.28-1.13.4 -.44.11-.92.21-1.47.31 -.55.09-1.12.14-1.71.14 -1.27 0-2.44-.18-3.51-.53 -1.08-.37-2-.92-2.79-1.66 -.77-.74-1.38-1.64-1.83-2.69 -.44-1.08-.65-2.29-.65-3.65 0-1.36.21-2.57.64-3.63 .44-1.08 1.06-1.98 1.84-2.72 .8-.74 1.75-1.3 2.85-1.68 1.1-.39 2.32-.58 3.64-.58 1.05 0 2.01.11 2.88.33 .88.2 1.65.46 2.32.76 -.13.22-.24.52-.32.91 -.08.38-.15.7-.2.96l-.15.04c-.16-.2-.39-.41-.68-.65 -.29-.24-.63-.48-1.01-.7 -.39-.23-.82-.41-1.3-.56 -.48-.16-1.01-.24-1.59-.24 -.95 0-1.83.15-2.64.45 -.8.3-1.51.77-2.12 1.41 -.6.62-1.06 1.42-1.4 2.4 -.34.96-.51 2.1-.51 3.43 0 1.32.16 2.48.5 3.45 .33.96.8 1.76 1.39 2.4 .6.62 1.31 1.08 2.11 1.39 .81.3 1.69.45 2.64.45 .57 0 1.1-.08 1.58-.22 .49-.15.94-.32 1.34-.51 .41-.21.78-.43 1.1-.65 .33-.24.61-.45.84-.63l.09.09 -.22 1.41Z"/><path d="M187.342 88.46c0-1.36.21-2.57.64-3.63 .44-1.08 1.06-1.98 1.84-2.72 .8-.74 1.75-1.3 2.85-1.68 1.1-.39 2.31-.58 3.62-.58 1.32 0 2.54.19 3.64.57 1.1.38 2.04.94 2.83 1.68 .8.73 1.41 1.64 1.84 2.71 .44 1.05.67 2.26.67 3.62 0 1.36-.23 2.57-.68 3.64 -.44 1.05-1.05 1.95-1.85 2.68 -.79.73-1.73 1.28-2.84 1.65 -1.11.35-2.32.52-3.65.52 -1.32 0-2.52-.18-3.63-.53 -1.11-.37-2.06-.92-2.86-1.66 -.79-.74-1.4-1.64-1.85-2.69 -.44-1.08-.65-2.29-.65-3.65Zm15.62 0c0-1.33-.17-2.48-.51-3.44 -.34-.98-.81-1.78-1.42-2.4 -.6-.64-1.3-1.12-2.12-1.42 -.8-.31-1.68-.46-2.62-.46 -.93 0-1.8.15-2.62.45 -.8.3-1.51.77-2.12 1.41 -.6.62-1.06 1.42-1.4 2.4 -.34.96-.51 2.1-.51 3.43 0 1.32.16 2.48.5 3.45 .33.96.8 1.76 1.39 2.4 .6.62 1.31 1.08 2.11 1.39 .81.3 1.68.45 2.61.45 .94 0 1.81-.16 2.61-.46 .81-.31 1.52-.77 2.11-1.4 .6-.64 1.08-1.44 1.41-2.4 .33-.98.5-2.128.5-3.46Z"/><path d="M209.15 86.4c0-1.06-.03-2.09-.08-3.1 -.04-1.03-.08-2.07-.12-3.12 .46.03.92.06 1.36.09 .44.01.9.02 1.36.02 .46 0 .92-.02 1.36-.05 .44-.05.9-.08 1.36-.08 .67 0 1.31.06 1.92.19 .6.12 1.13.34 1.58.64 .46.28.82.67 1.08 1.15 .27.48.4 1.08.4 1.8 0 .76-.18 1.43-.53 1.99 -.34.54-.76 1-1.25 1.36 -.5.35-1.04.63-1.61.84 -.56.19-1.08.32-1.54.38 .19.24.45.57.79 1 .33.43.71.91 1.12 1.44 .41.51.84 1.05 1.29 1.63 .44.56.88 1.1 1.29 1.63 .41.51.8.98 1.17 1.41 .36.43.66.76.88.98 -.24-.04-.48-.05-.72-.05s-.48 0-.72 0c-.23 0-.46 0-.7 0 -.24 0-.48.01-.7.04 -.24-.34-.61-.84-1.11-1.52 -.48-.68-1.02-1.4-1.61-2.16 -.6-.77-1.2-1.53-1.83-2.28 -.61-.77-1.17-1.42-1.68-1.95h-.92v1.75c0 1.05.01 2.09.04 3.12 .04 1.02.09 2.03.14 3.02 -.37-.04-.76-.05-1.18-.05 -.42 0-.81.01-1.18.04 .04-1 .08-2 .12-3.03 .04-1.03.07-2.07.07-3.12v-4.13Zm1.96 1.36c.22.04.46.08.72.09 .27.01.56.02.88.02 .49 0 1-.06 1.53-.17 .54-.12 1.04-.31 1.48-.58 .44-.29.81-.67 1.1-1.13 .3-.48.45-1.08.45-1.8 0-.63-.12-1.14-.36-1.54 -.23-.42-.52-.75-.89-.99s-.77-.4-1.2-.48c-.44-.1-.86-.15-1.28-.15 -.56 0-1.03.01-1.4.04 -.37.01-.68.04-.94.07 -.04.88-.07 1.75-.1 2.61 -.04.86-.05 1.72-.05 2.59v1.36Z"/><path d="M226.92 89.21c.41 0 .84 0 1.29.02 .44.01.88.02 1.29.02 .44 0 .89 0 1.34 0 .44-.02.89-.04 1.34-.05l-2.67-6.1 -2.62 6.09Zm10.63 7.46c-.23-.04-.44-.05-.65-.05 -.2 0-.4 0-.63 0 -.23 0-.44 0-.65 0 -.2 0-.4.01-.63.04 -.12-.37-.27-.81-.46-1.32 -.2-.53-.41-1.08-.65-1.64 -.23-.58-.46-1.16-.7-1.73 -.24-.6-.47-1.16-.68-1.68 -.52-.02-1.04-.03-1.56-.03 -.53-.02-1.06-.03-1.59-.03 -.5 0-.99 0-1.47.02 -.48 0-.97 0-1.47.02 -.52 1.24-.98 2.44-1.4 3.57 -.42 1.12-.73 2.04-.94 2.78 -.28-.04-.57-.05-.89-.05 -.32 0-.62.01-.89.04 1.29-2.8 2.56-5.59 3.79-8.36 1.23-2.77 2.47-5.59 3.72-8.45h.45c.38.92.8 1.93 1.24 3.02 .44 1.07.9 2.16 1.36 3.26 .46 1.1.92 2.2 1.39 3.28 .46 1.08.89 2.1 1.29 3.04 .41.92.78 1.76 1.1 2.49 .33.73.6 1.29.81 1.68Z"/></g></svg>