<svg width="100%" viewBox="0 0 319 64" fill="none" xmlns="http://www.w3.org/2000/svg">
<path d="M33.8928 20.1084L27.3741 43.5872H26.5981L20.1415 26.4633L13.5608 43.5872H12.8158L6.42133 20.1084H9.18399L13.5608 36.3244L19.769 20.1084H20.514L26.6602 36.3557L31.1301 20.1084H33.8928Z" fill="var(--secondary)"/>
<path d="M56.1171 43.0237H55.31L40.9069 26.4007V43.0237H38.1753V20.1084H38.9823L53.4786 36.9505V20.1084H56.1171V43.0237Z" fill="var(--secondary)"/>
<path fill-rule="evenodd" clip-rule="evenodd" d="M0 0H64V54.2701H62.4419V1.57129H1.55805V4.95562H0V0ZM0 10.3343H1.55805V62.4287H62.4419V59.6487H64V64H0V10.3343Z" fill="var(--secondary)"/>
<path d="M86.496 39.048C86.368 38.648 86.168 38.016 85.896 37.152C85.64 36.288 85.344 35.312 85.008 34.224C84.672 33.136 84.32 32 83.952 30.816C83.584 29.616 83.232 28.48 82.896 27.408C82.56 26.32 82.248 25.344 81.96 24.48C81.688 23.616 81.472 22.976 81.312 22.56C81.52 22.592 81.72 22.624 81.912 22.656C82.104 22.672 82.304 22.68 82.512 22.68C82.72 22.68 82.92 22.672 83.112 22.656C83.304 22.624 83.504 22.592 83.712 22.56C84.016 23.776 84.312 24.92 84.6 25.992C84.888 27.048 85.192 28.128 85.512 29.232C85.848 30.32 86.2 31.472 86.568 32.688C86.952 33.888 87.384 35.248 87.864 36.768H87.912C88.056 36.336 88.256 35.744 88.512 34.992C88.768 34.224 89.048 33.384 89.352 32.472C89.656 31.544 89.976 30.584 90.312 29.592C90.648 28.6 90.96 27.656 91.248 26.76C91.536 25.848 91.792 25.024 92.016 24.288C92.24 23.536 92.4 22.96 92.496 22.56C92.816 22.64 93.08 22.68 93.288 22.68C93.496 22.68 93.76 22.64 94.08 22.56C94.192 22.992 94.36 23.584 94.584 24.336C94.824 25.088 95.088 25.928 95.376 26.856C95.664 27.768 95.968 28.72 96.288 29.712C96.624 30.704 96.944 31.656 97.248 32.568C97.552 33.48 97.824 34.304 98.064 35.04C98.32 35.776 98.52 36.352 98.664 36.768H98.712C98.824 36.416 98.992 35.872 99.216 35.136C99.456 34.384 99.72 33.544 100.008 32.616C100.312 31.672 100.616 30.688 100.92 29.664C101.24 28.624 101.536 27.64 101.808 26.712C102.096 25.768 102.344 24.928 102.552 24.192C102.776 23.456 102.928 22.912 103.008 22.56C103.152 22.592 103.288 22.624 103.416 22.656C103.56 22.672 103.704 22.68 103.848 22.68C103.992 22.68 104.128 22.672 104.256 22.656C104.4 22.624 104.544 22.592 104.688 22.56C104.528 22.928 104.296 23.536 103.992 24.384C103.688 25.232 103.344 26.2 102.96 27.288C102.592 28.376 102.2 29.528 101.784 30.744C101.384 31.96 100.992 33.12 100.608 34.224C100.24 35.312 99.904 36.296 99.6 37.176C99.312 38.04 99.096 38.664 98.952 39.048C98.696 39.016 98.424 39 98.136 39C97.848 39 97.576 39.016 97.32 39.048C96.6 36.824 95.888 34.592 95.184 32.352C94.48 30.096 93.72 27.768 92.904 25.368H92.856C92.728 25.736 92.552 26.232 92.328 26.856C92.12 27.464 91.88 28.152 91.608 28.92C91.352 29.688 91.072 30.512 90.768 31.392C90.464 32.272 90.16 33.16 89.856 34.056C89.552 34.952 89.256 35.832 88.968 36.696C88.68 37.56 88.416 38.344 88.176 39.048C87.92 39.016 87.64 39 87.336 39C87.032 39 86.752 39.016 86.496 39.048Z" fill="var(--secondary)"/>
<path d="M120.336 30.36C120.336 28.088 120.328 26.336 120.312 25.104C120.296 23.872 120.256 23.024 120.192 22.56C120.368 22.592 120.536 22.624 120.696 22.656C120.856 22.672 121.016 22.68 121.176 22.68C121.384 22.68 121.624 22.64 121.896 22.56C121.848 23.12 121.8 23.792 121.752 24.576C121.704 25.344 121.664 26.176 121.632 27.072C121.6 27.952 121.568 28.864 121.536 29.808C121.504 30.736 121.48 31.64 121.464 32.52C121.448 33.592 121.28 34.552 120.96 35.4C120.656 36.248 120.216 36.968 119.64 37.56C119.064 38.152 118.352 38.6 117.504 38.904C116.672 39.208 115.712 39.36 114.624 39.36C112.224 39.36 110.48 38.816 109.392 37.728C108.304 36.64 107.76 34.92 107.76 32.568C107.76 31.816 107.776 31.152 107.808 30.576C107.856 29.984 107.88 29.384 107.88 28.776C107.88 27.432 107.864 26.24 107.832 25.2C107.8 24.16 107.768 23.28 107.736 22.56C107.928 22.592 108.136 22.624 108.36 22.656C108.584 22.672 108.792 22.68 108.984 22.68C109.16 22.68 109.328 22.672 109.488 22.656C109.664 22.624 109.84 22.592 110.016 22.56C109.984 22.912 109.952 23.376 109.92 23.952C109.888 24.512 109.856 25.152 109.824 25.872C109.792 26.592 109.768 27.368 109.752 28.2C109.736 29.032 109.728 29.896 109.728 30.792C109.728 31.336 109.736 31.904 109.752 32.496C109.768 33.072 109.824 33.64 109.92 34.2C110.016 34.744 110.168 35.272 110.376 35.784C110.6 36.28 110.912 36.72 111.312 37.104C111.712 37.472 112.216 37.768 112.824 37.992C113.432 38.2 114.184 38.304 115.08 38.304C115.96 38.304 116.696 38.176 117.288 37.92C117.896 37.664 118.392 37.328 118.776 36.912C119.16 36.496 119.456 36.016 119.664 35.472C119.888 34.928 120.048 34.36 120.144 33.768C120.24 33.176 120.296 32.584 120.312 31.992C120.328 31.4 120.336 30.856 120.336 30.36Z" fill="var(--secondary)"/>
<path d="M130.328 28.776C130.328 27.112 130.304 25.456 130.256 23.808C129.84 23.808 129.4 23.816 128.936 23.832C128.488 23.832 128.032 23.848 127.568 23.88C127.12 23.896 126.68 23.92 126.248 23.952C125.832 23.984 125.456 24.024 125.12 24.072C125.2 23.784 125.24 23.528 125.24 23.304C125.24 23.128 125.2 22.88 125.12 22.56C126.176 22.592 127.208 22.624 128.216 22.656C129.224 22.672 130.256 22.68 131.312 22.68C132.368 22.68 133.4 22.672 134.408 22.656C135.416 22.624 136.448 22.592 137.504 22.56C137.424 22.88 137.384 23.136 137.384 23.328C137.384 23.536 137.424 23.784 137.504 24.072C137.168 24.024 136.784 23.984 136.352 23.952C135.936 23.92 135.496 23.896 135.032 23.88C134.584 23.848 134.128 23.832 133.664 23.832C133.216 23.816 132.784 23.808 132.368 23.808C132.32 25.456 132.296 27.112 132.296 28.776V32.904C132.296 33.96 132.312 35 132.344 36.024C132.392 37.048 132.44 38.056 132.488 39.048C132.12 39.016 131.728 39 131.312 39C130.896 39 130.504 39.016 130.136 39.048C130.184 38.056 130.224 37.048 130.256 36.024C130.304 35 130.328 33.96 130.328 32.904V28.776Z" fill="var(--secondary)"/>
<path d="M152.808 28.776C152.808 27.72 152.784 26.688 152.736 25.68C152.704 24.656 152.664 23.616 152.616 22.56C152.824 22.592 153.024 22.624 153.216 22.656C153.408 22.672 153.6 22.68 153.792 22.68C153.984 22.68 154.176 22.672 154.368 22.656C154.56 22.624 154.76 22.592 154.968 22.56C154.92 23.616 154.872 24.656 154.824 25.68C154.792 26.688 154.776 27.72 154.776 28.776V32.904C154.776 33.96 154.792 35 154.824 36.024C154.872 37.048 154.92 38.056 154.968 39.048C154.6 39.016 154.208 39 153.792 39C153.376 39 152.984 39.016 152.616 39.048C152.664 38.056 152.704 37.048 152.736 36.024C152.784 35 152.808 33.96 152.808 32.904V30.744C151.944 30.728 151.104 30.72 150.288 30.72C149.488 30.704 148.656 30.696 147.792 30.696C146.928 30.696 146.088 30.704 145.272 30.72C144.472 30.72 143.64 30.728 142.776 30.744V32.904C142.776 33.96 142.792 35 142.824 36.024C142.872 37.048 142.92 38.056 142.968 39.048C142.6 39.016 142.208 39 141.792 39C141.376 39 140.984 39.016 140.616 39.048C140.664 38.056 140.704 37.048 140.736 36.024C140.784 35 140.808 33.96 140.808 32.904V28.776C140.808 27.72 140.784 26.688 140.736 25.68C140.704 24.656 140.664 23.616 140.616 22.56C140.824 22.592 141.024 22.624 141.216 22.656C141.408 22.672 141.6 22.68 141.792 22.68C141.984 22.68 142.176 22.672 142.368 22.656C142.56 22.624 142.76 22.592 142.968 22.56C142.92 23.616 142.872 24.656 142.824 25.68C142.792 26.688 142.776 27.72 142.776 28.776V29.616C143.64 29.632 144.472 29.648 145.272 29.664C146.088 29.68 146.928 29.688 147.792 29.688C148.656 29.688 149.488 29.68 150.288 29.664C151.104 29.648 151.944 29.632 152.808 29.616V28.776Z" fill="var(--secondary)"/>
<path d="M159.967 28.776C159.967 27.72 159.943 26.688 159.895 25.68C159.863 24.656 159.823 23.616 159.775 22.56C159.983 22.592 160.183 22.624 160.375 22.656C160.567 22.672 160.759 22.68 160.951 22.68C161.143 22.68 161.335 22.672 161.527 22.656C161.719 22.624 161.919 22.592 162.127 22.56C162.079 23.616 162.031 24.656 161.983 25.68C161.951 26.688 161.935 27.72 161.935 28.776V32.904C161.935 33.96 161.951 35 161.983 36.024C162.031 37.048 162.079 38.056 162.127 39.048C161.759 39.016 161.367 39 160.951 39C160.535 39 160.143 39.016 159.775 39.048C159.823 38.056 159.863 37.048 159.895 36.024C159.943 35 159.967 33.96 159.967 32.904V28.776Z" fill="var(--secondary)"/>
<path d="M167.127 28.752C167.127 27.696 167.103 26.656 167.055 25.632C167.023 24.608 166.983 23.584 166.935 22.56C167.655 22.592 168.367 22.624 169.071 22.656C169.791 22.672 170.511 22.68 171.231 22.68C171.951 22.68 172.663 22.672 173.367 22.656C174.071 22.624 174.783 22.592 175.503 22.56C175.455 22.8 175.431 23.04 175.431 23.28C175.431 23.52 175.455 23.76 175.503 24C174.991 23.968 174.519 23.936 174.087 23.904C173.671 23.872 173.223 23.84 172.743 23.808C172.279 23.776 171.767 23.752 171.207 23.736C170.647 23.704 169.975 23.688 169.191 23.688C169.175 24.2 169.151 24.688 169.119 25.152C169.103 25.616 169.095 26.144 169.095 26.736C169.095 27.36 169.095 27.968 169.095 28.56C169.111 29.152 169.119 29.6 169.119 29.904C169.823 29.904 170.455 29.896 171.015 29.88C171.575 29.864 172.087 29.848 172.551 29.832C173.015 29.8 173.439 29.776 173.823 29.76C174.223 29.728 174.599 29.696 174.951 29.664C174.903 29.904 174.879 30.152 174.879 30.408C174.879 30.648 174.903 30.888 174.951 31.128C174.535 31.08 174.047 31.04 173.487 31.008C172.943 30.976 172.391 30.96 171.831 30.96C171.287 30.944 170.767 30.936 170.271 30.936C169.791 30.92 169.407 30.912 169.119 30.912C169.119 31.056 169.111 31.216 169.095 31.392C169.095 31.552 169.095 31.76 169.095 32.016V34.392C169.095 35.304 169.095 36.056 169.095 36.648C169.111 37.24 169.127 37.688 169.143 37.992C169.671 37.992 170.231 37.992 170.823 37.992C171.431 37.992 172.023 37.984 172.599 37.968C173.191 37.936 173.743 37.904 174.255 37.872C174.783 37.824 175.239 37.76 175.623 37.68C175.591 37.792 175.567 37.92 175.551 38.064C175.551 38.192 175.551 38.312 175.551 38.424C175.551 38.68 175.575 38.888 175.623 39.048C174.903 39.016 174.183 39 173.463 39C172.759 39 172.039 39 171.303 39C170.567 39 169.839 39 169.119 39C168.399 39 167.671 39.016 166.935 39.048C166.983 38.024 167.023 37.008 167.055 36C167.103 34.976 167.127 33.936 167.127 32.88V28.752Z" fill="var(--secondary)"/>
<path d="M179.607 28.776C179.607 27.72 179.583 26.688 179.535 25.68C179.503 24.656 179.463 23.616 179.415 22.56C179.879 22.592 180.335 22.624 180.783 22.656C181.231 22.672 181.687 22.68 182.151 22.68C182.615 22.68 183.071 22.664 183.519 22.632C183.967 22.584 184.423 22.56 184.887 22.56C185.559 22.56 186.199 22.624 186.807 22.752C187.415 22.88 187.943 23.096 188.391 23.4C188.855 23.688 189.215 24.072 189.471 24.552C189.743 25.032 189.879 25.632 189.879 26.352C189.879 27.12 189.703 27.784 189.351 28.344C189.015 28.888 188.599 29.344 188.103 29.712C187.607 30.064 187.071 30.344 186.495 30.552C185.935 30.744 185.423 30.872 184.959 30.936C185.151 31.176 185.415 31.512 185.751 31.944C186.087 32.376 186.463 32.856 186.879 33.384C187.295 33.896 187.727 34.44 188.175 35.016C188.623 35.576 189.055 36.12 189.471 36.648C189.887 37.16 190.279 37.632 190.647 38.064C191.015 38.496 191.311 38.824 191.535 39.048C191.295 39.016 191.055 39 190.815 39C190.575 39 190.335 39 190.095 39C189.871 39 189.639 39 189.399 39C189.159 39 188.927 39.016 188.703 39.048C188.463 38.712 188.095 38.208 187.599 37.536C187.119 36.864 186.583 36.144 185.991 35.376C185.399 34.608 184.791 33.848 184.167 33.096C183.559 32.328 182.999 31.68 182.487 31.152H181.575V32.904C181.575 33.96 181.591 35 181.623 36.024C181.671 37.048 181.719 38.056 181.767 39.048C181.399 39.016 181.007 39 180.591 39C180.175 39 179.783 39.016 179.415 39.048C179.463 38.056 179.503 37.048 179.535 36.024C179.583 35 179.607 33.96 179.607 32.904V28.776ZM181.575 30.144C181.799 30.192 182.039 30.224 182.295 30.24C182.567 30.256 182.863 30.264 183.183 30.264C183.679 30.264 184.191 30.208 184.719 30.096C185.263 29.984 185.759 29.792 186.207 29.52C186.655 29.232 187.023 28.856 187.311 28.392C187.615 27.912 187.767 27.312 187.767 26.592C187.767 25.968 187.647 25.456 187.407 25.056C187.183 24.64 186.887 24.312 186.519 24.072C186.151 23.832 185.751 23.672 185.319 23.592C184.887 23.496 184.463 23.448 184.047 23.448C183.487 23.448 183.023 23.464 182.655 23.496C182.287 23.512 181.975 23.536 181.719 23.568C181.687 24.448 181.655 25.32 181.623 26.184C181.591 27.048 181.575 27.912 181.575 28.776V30.144Z" fill="var(--secondary)"/>
<path d="M203.239 34.944C203.239 35.376 203.327 35.8 203.503 36.216C203.679 36.616 203.919 36.976 204.223 37.296C204.543 37.6 204.919 37.848 205.351 38.04C205.783 38.216 206.255 38.304 206.767 38.304C207.583 38.304 208.279 38.16 208.855 37.872C209.431 37.568 209.999 37.136 210.559 36.576C209.743 35.616 208.967 34.664 208.231 33.72C207.495 32.776 206.767 31.8 206.047 30.792C205.167 31.32 204.479 31.896 203.983 32.52C203.487 33.144 203.239 33.952 203.239 34.944ZM204.031 26.472C204.031 25.96 204.119 25.488 204.295 25.056C204.487 24.624 204.743 24.248 205.063 23.928C205.399 23.592 205.791 23.336 206.239 23.16C206.687 22.968 207.183 22.872 207.727 22.872C208.655 22.872 209.415 23.104 210.007 23.568C210.615 24.016 210.919 24.68 210.919 25.56C210.919 26.008 210.815 26.44 210.607 26.856C210.399 27.272 210.127 27.664 209.791 28.032C209.471 28.384 209.119 28.712 208.735 29.016C208.351 29.304 207.983 29.552 207.631 29.76C208.351 30.688 209.055 31.6 209.743 32.496C210.431 33.376 211.135 34.208 211.855 34.992C212.431 34.176 212.951 33.4 213.415 32.664C213.895 31.912 214.327 31.104 214.711 30.24C214.807 30.448 214.935 30.632 215.095 30.792C215.271 30.936 215.447 31.072 215.623 31.2C215.127 31.968 214.631 32.712 214.135 33.432C213.639 34.152 213.055 34.896 212.383 35.664L215.455 39.048C215.199 39.016 214.943 39 214.687 39C214.431 39 214.175 39 213.919 39C213.695 39 213.463 39 213.223 39C212.999 39 212.775 39.016 212.551 39.048C212.423 38.872 212.223 38.608 211.951 38.256C211.695 37.888 211.391 37.496 211.039 37.08C210.335 37.784 209.575 38.344 208.759 38.76C207.959 39.16 206.991 39.36 205.855 39.36C205.231 39.36 204.639 39.28 204.079 39.12C203.535 38.976 203.055 38.736 202.639 38.4C202.223 38.064 201.887 37.648 201.631 37.152C201.391 36.64 201.271 36.048 201.271 35.376C201.271 34.848 201.383 34.336 201.607 33.84C201.831 33.328 202.135 32.848 202.519 32.4C202.919 31.936 203.383 31.52 203.911 31.152C204.439 30.784 205.015 30.472 205.639 30.216C205.175 29.544 204.791 28.904 204.487 28.296C204.183 27.688 204.031 27.08 204.031 26.472ZM209.671 25.536C209.671 24.96 209.495 24.488 209.143 24.12C208.807 23.736 208.343 23.544 207.751 23.544C207.127 23.544 206.631 23.76 206.263 24.192C205.895 24.624 205.711 25.16 205.711 25.8C205.711 26.28 205.847 26.84 206.119 27.48C206.407 28.12 206.775 28.712 207.223 29.256C208.039 28.744 208.647 28.152 209.047 27.48C209.463 26.792 209.671 26.144 209.671 25.536Z" fill="var(--secondary)"/>
<path d="M240.391 39.36C238.551 37.232 236.591 35.056 234.511 32.832C232.431 30.592 230.351 28.368 228.271 26.16C228.255 26.608 228.239 27.208 228.223 27.96C228.207 28.712 228.199 29.736 228.199 31.032C228.199 31.368 228.199 31.784 228.199 32.28C228.215 32.776 228.223 33.296 228.223 33.84C228.239 34.384 228.255 34.936 228.271 35.496C228.287 36.056 228.303 36.576 228.319 37.056C228.335 37.536 228.351 37.96 228.367 38.328C228.383 38.68 228.399 38.92 228.415 39.048C228.159 39.016 227.879 39 227.575 39C227.255 39 226.959 39.016 226.687 39.048C226.719 38.888 226.751 38.592 226.783 38.16C226.831 37.728 226.871 37.216 226.903 36.624C226.935 36.016 226.967 35.36 226.999 34.656C227.047 33.952 227.079 33.248 227.095 32.544C227.127 31.84 227.151 31.152 227.167 30.48C227.183 29.808 227.191 29.208 227.191 28.68C227.191 27.144 227.183 25.824 227.167 24.72C227.167 23.616 227.151 22.792 227.119 22.248H227.503C228.479 23.304 229.519 24.44 230.623 25.656C231.743 26.856 232.847 28.048 233.935 29.232C235.039 30.4 236.079 31.512 237.055 32.568C238.047 33.608 238.911 34.496 239.647 35.232V31.968C239.647 30.288 239.631 28.656 239.599 27.072C239.583 25.472 239.535 23.968 239.455 22.56C239.775 22.64 240.047 22.68 240.271 22.68C240.463 22.68 240.719 22.64 241.039 22.56C241.007 22.912 240.967 23.44 240.919 24.144C240.887 24.848 240.847 25.6 240.799 26.4C240.767 27.2 240.735 27.984 240.703 28.752C240.671 29.52 240.655 30.136 240.655 30.6C240.655 31 240.655 31.48 240.655 32.04C240.655 32.584 240.655 33.152 240.655 33.744C240.671 34.336 240.679 34.936 240.679 35.544C240.695 36.136 240.703 36.696 240.703 37.224C240.719 37.736 240.727 38.184 240.727 38.568C240.727 38.92 240.727 39.184 240.727 39.36H240.391Z" fill="var(--secondary)"/>
<path d="M246.038 28.776C246.038 27.72 246.014 26.688 245.966 25.68C245.934 24.656 245.894 23.616 245.846 22.56C246.054 22.592 246.254 22.624 246.446 22.656C246.638 22.672 246.83 22.68 247.022 22.68C247.214 22.68 247.406 22.672 247.598 22.656C247.79 22.624 247.99 22.592 248.198 22.56C248.15 23.616 248.102 24.656 248.054 25.68C248.022 26.688 248.006 27.72 248.006 28.776V32.904C248.006 33.96 248.022 35 248.054 36.024C248.102 37.048 248.15 38.056 248.198 39.048C247.83 39.016 247.438 39 247.022 39C246.606 39 246.214 39.016 245.846 39.048C245.894 38.056 245.934 37.048 245.966 36.024C246.014 35 246.038 33.96 246.038 32.904V28.776Z" fill="var(--secondary)"/>
<path d="M265.606 38.064C265.462 38.192 265.23 38.336 264.91 38.496C264.606 38.64 264.23 38.776 263.782 38.904C263.35 39.016 262.862 39.12 262.318 39.216C261.774 39.312 261.206 39.36 260.614 39.36C259.35 39.36 258.182 39.184 257.11 38.832C256.038 38.464 255.11 37.912 254.326 37.176C253.558 36.44 252.95 35.544 252.502 34.488C252.07 33.416 251.854 32.2 251.854 30.84C251.854 29.48 252.07 28.272 252.502 27.216C252.95 26.144 253.566 25.24 254.35 24.504C255.15 23.768 256.102 23.208 257.206 22.824C258.31 22.44 259.526 22.248 260.854 22.248C261.91 22.248 262.87 22.36 263.734 22.584C264.614 22.792 265.39 23.048 266.062 23.352C265.934 23.576 265.83 23.88 265.75 24.264C265.67 24.648 265.606 24.968 265.558 25.224L265.414 25.272C265.254 25.08 265.03 24.864 264.742 24.624C264.454 24.384 264.118 24.152 263.734 23.928C263.35 23.704 262.918 23.52 262.438 23.376C261.958 23.216 261.43 23.136 260.854 23.136C259.91 23.136 259.03 23.288 258.214 23.592C257.414 23.896 256.71 24.368 256.102 25.008C255.51 25.632 255.046 26.432 254.71 27.408C254.374 28.368 254.206 29.512 254.206 30.84C254.206 32.168 254.374 33.32 254.71 34.296C255.046 35.256 255.51 36.056 256.102 36.696C256.71 37.32 257.414 37.784 258.214 38.088C259.03 38.392 259.91 38.544 260.854 38.544C261.43 38.544 261.958 38.472 262.438 38.328C262.934 38.184 263.382 38.016 263.782 37.824C264.198 37.616 264.566 37.4 264.886 37.176C265.222 36.936 265.502 36.728 265.726 36.552L265.822 36.648L265.606 38.064Z" fill="var(--secondary)"/>
<path d="M268.342 30.84C268.342 29.48 268.558 28.272 268.99 27.216C269.438 26.144 270.054 25.24 270.838 24.504C271.638 23.768 272.59 23.208 273.694 22.824C274.798 22.44 276.006 22.248 277.318 22.248C278.646 22.248 279.862 22.44 280.966 22.824C282.07 23.208 283.014 23.768 283.798 24.504C284.598 25.24 285.214 26.144 285.646 27.216C286.094 28.272 286.318 29.48 286.318 30.84C286.318 32.2 286.094 33.416 285.646 34.488C285.214 35.544 284.598 36.44 283.798 37.176C283.014 37.912 282.07 38.464 280.966 38.832C279.862 39.184 278.646 39.36 277.318 39.36C276.006 39.36 274.798 39.184 273.694 38.832C272.59 38.464 271.638 37.912 270.838 37.176C270.054 36.44 269.438 35.544 268.99 34.488C268.558 33.416 268.342 32.2 268.342 30.84ZM283.966 30.84C283.966 29.512 283.798 28.368 283.462 27.408C283.126 26.432 282.654 25.632 282.046 25.008C281.454 24.368 280.75 23.896 279.934 23.592C279.134 23.288 278.262 23.136 277.318 23.136C276.39 23.136 275.518 23.288 274.702 23.592C273.902 23.896 273.198 24.368 272.59 25.008C271.998 25.632 271.534 26.432 271.198 27.408C270.862 28.368 270.694 29.512 270.694 30.84C270.694 32.168 270.862 33.32 271.198 34.296C271.534 35.256 271.998 36.056 272.59 36.696C273.198 37.32 273.902 37.784 274.702 38.088C275.518 38.392 276.39 38.544 277.318 38.544C278.262 38.544 279.134 38.392 279.934 38.088C280.75 37.784 281.454 37.32 282.046 36.696C282.654 36.056 283.126 35.256 283.462 34.296C283.798 33.32 283.966 32.168 283.966 30.84Z" fill="var(--secondary)"/>
<path d="M290.158 28.776C290.158 27.72 290.134 26.688 290.086 25.68C290.054 24.656 290.014 23.616 289.966 22.56C290.43 22.592 290.886 22.624 291.334 22.656C291.782 22.672 292.238 22.68 292.702 22.68C293.166 22.68 293.622 22.664 294.07 22.632C294.518 22.584 294.974 22.56 295.438 22.56C296.11 22.56 296.75 22.624 297.358 22.752C297.966 22.88 298.494 23.096 298.942 23.4C299.406 23.688 299.766 24.072 300.022 24.552C300.294 25.032 300.43 25.632 300.43 26.352C300.43 27.12 300.254 27.784 299.902 28.344C299.566 28.888 299.15 29.344 298.654 29.712C298.158 30.064 297.622 30.344 297.046 30.552C296.486 30.744 295.974 30.872 295.51 30.936C295.702 31.176 295.966 31.512 296.302 31.944C296.638 32.376 297.014 32.856 297.43 33.384C297.846 33.896 298.278 34.44 298.726 35.016C299.174 35.576 299.606 36.12 300.022 36.648C300.438 37.16 300.83 37.632 301.198 38.064C301.566 38.496 301.862 38.824 302.086 39.048C301.846 39.016 301.606 39 301.366 39C301.126 39 300.886 39 300.646 39C300.422 39 300.19 39 299.95 39C299.71 39 299.478 39.016 299.254 39.048C299.014 38.712 298.646 38.208 298.15 37.536C297.67 36.864 297.134 36.144 296.542 35.376C295.95 34.608 295.342 33.848 294.718 33.096C294.11 32.328 293.55 31.68 293.038 31.152H292.126V32.904C292.126 33.96 292.142 35 292.174 36.024C292.222 37.048 292.27 38.056 292.318 39.048C291.95 39.016 291.558 39 291.142 39C290.726 39 290.334 39.016 289.966 39.048C290.014 38.056 290.054 37.048 290.086 36.024C290.134 35 290.158 33.96 290.158 32.904V28.776ZM292.126 30.144C292.35 30.192 292.59 30.224 292.846 30.24C293.118 30.256 293.414 30.264 293.734 30.264C294.23 30.264 294.742 30.208 295.27 30.096C295.814 29.984 296.31 29.792 296.758 29.52C297.206 29.232 297.574 28.856 297.862 28.392C298.166 27.912 298.318 27.312 298.318 26.592C298.318 25.968 298.198 25.456 297.958 25.056C297.734 24.64 297.438 24.312 297.07 24.072C296.702 23.832 296.302 23.672 295.87 23.592C295.438 23.496 295.014 23.448 294.598 23.448C294.038 23.448 293.574 23.464 293.206 23.496C292.838 23.512 292.526 23.536 292.27 23.568C292.238 24.448 292.206 25.32 292.174 26.184C292.142 27.048 292.126 27.912 292.126 28.776V30.144Z" fill="var(--secondary)"/>
<path d="M307.926 31.584C308.342 31.584 308.774 31.592 309.222 31.608C309.67 31.624 310.102 31.632 310.518 31.632C310.966 31.632 311.414 31.632 311.862 31.632C312.31 31.616 312.758 31.6 313.206 31.584L310.542 25.488L307.926 31.584ZM318.558 39.048C318.334 39.016 318.118 39 317.91 39C317.718 39 317.51 39 317.286 39C317.062 39 316.846 39 316.638 39C316.446 39 316.238 39.016 316.014 39.048C315.902 38.68 315.75 38.24 315.558 37.728C315.366 37.2 315.15 36.656 314.91 36.096C314.686 35.52 314.454 34.944 314.214 34.368C313.974 33.776 313.75 33.216 313.542 32.688C313.03 32.672 312.51 32.664 311.982 32.664C311.454 32.648 310.926 32.64 310.398 32.64C309.902 32.64 309.414 32.648 308.934 32.664C308.454 32.664 307.966 32.672 307.47 32.688C306.958 33.936 306.494 35.128 306.078 36.264C305.662 37.384 305.35 38.312 305.142 39.048C304.87 39.016 304.574 39 304.254 39C303.934 39 303.638 39.016 303.366 39.048C304.662 36.248 305.926 33.464 307.158 30.696C308.39 27.928 309.63 25.112 310.878 22.248H311.334C311.718 23.176 312.134 24.184 312.582 25.272C313.03 26.344 313.486 27.432 313.95 28.536C314.414 29.64 314.878 30.736 315.342 31.824C315.806 32.912 316.238 33.928 316.638 34.872C317.054 35.8 317.422 36.632 317.742 37.368C318.078 38.104 318.35 38.664 318.558 39.048Z" fill="var(--secondary)"/>
</svg>
