<svg width="100%" class="logo"  viewBox="0 0 238 104" fill="none" xmlns="http://www.w3.org/2000/svg">
<path d="M120.868 19.6777L114.435 42.6536H113.669L107.297 25.8965L100.802 42.6536H100.067L93.7565 19.6777H96.4829L100.802 35.5464L106.929 19.6777H107.665L113.73 35.577L118.142 19.6777H120.868Z" fill="var(--secondary)"/>
<path d="M142.801 42.1022H142.005L127.79 25.8353V42.1022H125.094V19.6777H125.891L140.197 36.1591V19.6777H142.801V42.1022Z" fill="var(--secondary)"/>
<path fill-rule="evenodd" clip-rule="evenodd" d="M87.4192 0H150.581V53.1077H149.043V1.53764H88.9568V4.84948H87.4192V0ZM87.4192 10.1129H88.9568V61.0916H149.043V58.3712H150.581V62.6292H87.4192V10.1129Z" fill="var(--secondary)"/>
<path d="M5.496 96.6769C5.368 96.2769 5.168 95.6449 4.896 94.7809C4.64 93.9169 4.344 92.9409 4.008 91.8529C3.672 90.7649 3.32 89.6289 2.952 88.4449C2.584 87.2449 2.232 86.1089 1.896 85.0369C1.56 83.9489 1.248 82.9729 0.96 82.1089C0.688 81.2449 0.472 80.6049 0.312 80.1889C0.52 80.2209 0.72 80.2529 0.912 80.2849C1.104 80.3009 1.304 80.3089 1.512 80.3089C1.72 80.3089 1.92 80.3009 2.112 80.2849C2.304 80.2529 2.504 80.2209 2.712 80.1889C3.016 81.4049 3.312 82.5489 3.6 83.6209C3.888 84.6769 4.192 85.7569 4.512 86.8609C4.848 87.9489 5.2 89.1009 5.568 90.3169C5.952 91.5169 6.384 92.8769 6.864 94.3969H6.912C7.056 93.9649 7.256 93.3729 7.512 92.6209C7.768 91.8529 8.048 91.0129 8.352 90.1009C8.656 89.1729 8.976 88.2129 9.312 87.2209C9.648 86.2289 9.96 85.2849 10.248 84.3889C10.536 83.4769 10.792 82.6529 11.016 81.9169C11.24 81.1649 11.4 80.5889 11.496 80.1889C11.816 80.2689 12.08 80.3089 12.288 80.3089C12.496 80.3089 12.76 80.2689 13.08 80.1889C13.192 80.6209 13.36 81.2129 13.584 81.9649C13.824 82.7169 14.088 83.5569 14.376 84.4849C14.664 85.3969 14.968 86.3489 15.288 87.3409C15.624 88.3329 15.944 89.2849 16.248 90.1969C16.552 91.1089 16.824 91.9329 17.064 92.6689C17.32 93.4049 17.52 93.9809 17.664 94.3969H17.712C17.824 94.0449 17.992 93.5009 18.216 92.7649C18.456 92.0129 18.72 91.1729 19.008 90.2449C19.312 89.3009 19.616 88.3169 19.92 87.2929C20.24 86.2529 20.536 85.2689 20.808 84.3409C21.096 83.3969 21.344 82.5569 21.552 81.8209C21.776 81.0849 21.928 80.5409 22.008 80.1889C22.152 80.2209 22.288 80.2529 22.416 80.2849C22.56 80.3009 22.704 80.3089 22.848 80.3089C22.992 80.3089 23.128 80.3009 23.256 80.2849C23.4 80.2529 23.544 80.2209 23.688 80.1889C23.528 80.5569 23.296 81.1649 22.992 82.0129C22.688 82.8609 22.344 83.8289 21.96 84.9169C21.592 86.0049 21.2 87.1569 20.784 88.3729C20.384 89.5889 19.992 90.7489 19.608 91.8529C19.24 92.9409 18.904 93.9249 18.6 94.8049C18.312 95.6689 18.096 96.2929 17.952 96.6769C17.696 96.6449 17.424 96.6289 17.136 96.6289C16.848 96.6289 16.576 96.6449 16.32 96.6769C15.6 94.4529 14.888 92.2209 14.184 89.9809C13.48 87.7249 12.72 85.3969 11.904 82.9969H11.856C11.728 83.3649 11.552 83.8609 11.328 84.4849C11.12 85.0929 10.88 85.7809 10.608 86.5489C10.352 87.3169 10.072 88.1409 9.768 89.0209C9.464 89.9009 9.16 90.7889 8.856 91.6849C8.552 92.5809 8.256 93.4609 7.968 94.3249C7.68 95.1889 7.416 95.9729 7.176 96.6769C6.92 96.6449 6.64 96.6289 6.336 96.6289C6.032 96.6289 5.752 96.6449 5.496 96.6769ZM39.336 87.9889C39.336 85.7169 39.328 83.9649 39.312 82.7329C39.296 81.5009 39.256 80.6529 39.192 80.1889C39.368 80.2209 39.536 80.2529 39.696 80.2849C39.856 80.3009 40.016 80.3089 40.176 80.3089C40.384 80.3089 40.624 80.2689 40.896 80.1889C40.848 80.7489 40.8 81.4209 40.752 82.2049C40.704 82.9729 40.664 83.8049 40.632 84.7009C40.6 85.5809 40.568 86.4929 40.536 87.4369C40.504 88.3649 40.48 89.2689 40.464 90.1489C40.448 91.2209 40.28 92.1809 39.96 93.0289C39.656 93.8769 39.216 94.5969 38.64 95.1889C38.064 95.7809 37.352 96.2289 36.504 96.5329C35.672 96.8369 34.712 96.9889 33.624 96.9889C31.224 96.9889 29.48 96.4449 28.392 95.3569C27.304 94.2689 26.76 92.5489 26.76 90.1969C26.76 89.4449 26.776 88.7809 26.808 88.2049C26.856 87.6129 26.88 87.0129 26.88 86.4049C26.88 85.0609 26.864 83.8689 26.832 82.8289C26.8 81.7889 26.768 80.9089 26.736 80.1889C26.928 80.2209 27.136 80.2529 27.36 80.2849C27.584 80.3009 27.792 80.3089 27.984 80.3089C28.16 80.3089 28.328 80.3009 28.488 80.2849C28.664 80.2529 28.84 80.2209 29.016 80.1889C28.984 80.5409 28.952 81.0049 28.92 81.5809C28.888 82.1409 28.856 82.7809 28.824 83.5009C28.792 84.2209 28.768 84.9969 28.752 85.8289C28.736 86.6609 28.728 87.5249 28.728 88.4209C28.728 88.9649 28.736 89.5329 28.752 90.1249C28.768 90.7009 28.824 91.2689 28.92 91.8289C29.016 92.3729 29.168 92.9009 29.376 93.4129C29.6 93.9089 29.912 94.3489 30.312 94.7329C30.712 95.1009 31.216 95.3969 31.824 95.6209C32.432 95.8289 33.184 95.9329 34.08 95.9329C34.96 95.9329 35.696 95.8049 36.288 95.5489C36.896 95.2929 37.392 94.9569 37.776 94.5409C38.16 94.1249 38.456 93.6449 38.664 93.1009C38.888 92.5569 39.048 91.9889 39.144 91.3969C39.24 90.8049 39.296 90.2129 39.312 89.6209C39.328 89.0289 39.336 88.4849 39.336 87.9889ZM49.3277 86.4049C49.3277 84.7409 49.3037 83.0849 49.2557 81.4369C48.8397 81.4369 48.3997 81.4449 47.9357 81.4609C47.4877 81.4609 47.0317 81.4769 46.5677 81.5089C46.1197 81.5249 45.6797 81.5489 45.2477 81.5809C44.8317 81.6129 44.4557 81.6529 44.1197 81.7009C44.1997 81.4129 44.2397 81.1569 44.2397 80.9329C44.2397 80.7569 44.1997 80.5089 44.1197 80.1889C45.1757 80.2209 46.2077 80.2529 47.2157 80.2849C48.2237 80.3009 49.2557 80.3089 50.3117 80.3089C51.3677 80.3089 52.3997 80.3009 53.4077 80.2849C54.4157 80.2529 55.4477 80.2209 56.5037 80.1889C56.4237 80.5089 56.3837 80.7649 56.3837 80.9569C56.3837 81.1649 56.4237 81.4129 56.5037 81.7009C56.1677 81.6529 55.7837 81.6129 55.3517 81.5809C54.9357 81.5489 54.4957 81.5249 54.0317 81.5089C53.5837 81.4769 53.1277 81.4609 52.6637 81.4609C52.2157 81.4449 51.7837 81.4369 51.3677 81.4369C51.3197 83.0849 51.2957 84.7409 51.2957 86.4049V90.5329C51.2957 91.5889 51.3117 92.6289 51.3437 93.6529C51.3917 94.6769 51.4397 95.6849 51.4877 96.6769C51.1197 96.6449 50.7277 96.6289 50.3117 96.6289C49.8957 96.6289 49.5037 96.6449 49.1357 96.6769C49.1837 95.6849 49.2237 94.6769 49.2557 93.6529C49.3037 92.6289 49.3277 91.5889 49.3277 90.5329V86.4049ZM71.8076 86.4049C71.8076 85.3489 71.7836 84.3169 71.7356 83.3089C71.7036 82.2849 71.6636 81.2449 71.6156 80.1889C71.8236 80.2209 72.0236 80.2529 72.2156 80.2849C72.4076 80.3009 72.5996 80.3089 72.7916 80.3089C72.9836 80.3089 73.1756 80.3009 73.3676 80.2849C73.5596 80.2529 73.7596 80.2209 73.9676 80.1889C73.9196 81.2449 73.8716 82.2849 73.8236 83.3089C73.7916 84.3169 73.7756 85.3489 73.7756 86.4049V90.5329C73.7756 91.5889 73.7916 92.6289 73.8236 93.6529C73.8716 94.6769 73.9196 95.6849 73.9676 96.6769C73.5996 96.6449 73.2076 96.6289 72.7916 96.6289C72.3756 96.6289 71.9836 96.6449 71.6156 96.6769C71.6636 95.6849 71.7036 94.6769 71.7356 93.6529C71.7836 92.6289 71.8076 91.5889 71.8076 90.5329V88.3729C70.9436 88.3569 70.1036 88.3489 69.2876 88.3489C68.4876 88.3329 67.6556 88.3249 66.7916 88.3249C65.9276 88.3249 65.0876 88.3329 64.2716 88.3489C63.4716 88.3489 62.6396 88.3569 61.7756 88.3729V90.5329C61.7756 91.5889 61.7916 92.6289 61.8236 93.6529C61.8716 94.6769 61.9196 95.6849 61.9676 96.6769C61.5996 96.6449 61.2076 96.6289 60.7916 96.6289C60.3756 96.6289 59.9836 96.6449 59.6156 96.6769C59.6636 95.6849 59.7036 94.6769 59.7356 93.6529C59.7836 92.6289 59.8076 91.5889 59.8076 90.5329V86.4049C59.8076 85.3489 59.7836 84.3169 59.7356 83.3089C59.7036 82.2849 59.6636 81.2449 59.6156 80.1889C59.8236 80.2209 60.0236 80.2529 60.2156 80.2849C60.4076 80.3009 60.5996 80.3089 60.7916 80.3089C60.9836 80.3089 61.1756 80.3009 61.3676 80.2849C61.5596 80.2529 61.7596 80.2209 61.9676 80.1889C61.9196 81.2449 61.8716 82.2849 61.8236 83.3089C61.7916 84.3169 61.7756 85.3489 61.7756 86.4049V87.2449C62.6396 87.2609 63.4716 87.2769 64.2716 87.2929C65.0876 87.3089 65.9276 87.3169 66.7916 87.3169C67.6556 87.3169 68.4876 87.3089 69.2876 87.2929C70.1036 87.2769 70.9436 87.2609 71.8076 87.2449V86.4049ZM78.9673 86.4049C78.9673 85.3489 78.9433 84.3169 78.8953 83.3089C78.8633 82.2849 78.8233 81.2449 78.7753 80.1889C78.9833 80.2209 79.1833 80.2529 79.3753 80.2849C79.5673 80.3009 79.7593 80.3089 79.9513 80.3089C80.1433 80.3089 80.3353 80.3009 80.5273 80.2849C80.7193 80.2529 80.9193 80.2209 81.1273 80.1889C81.0793 81.2449 81.0313 82.2849 80.9833 83.3089C80.9513 84.3169 80.9353 85.3489 80.9353 86.4049V90.5329C80.9353 91.5889 80.9513 92.6289 80.9833 93.6529C81.0313 94.6769 81.0793 95.6849 81.1273 96.6769C80.7593 96.6449 80.3673 96.6289 79.9513 96.6289C79.5353 96.6289 79.1433 96.6449 78.7753 96.6769C78.8233 95.6849 78.8633 94.6769 78.8953 93.6529C78.9433 92.6289 78.9673 91.5889 78.9673 90.5329V86.4049ZM86.127 86.3809C86.127 85.3249 86.103 84.2849 86.055 83.2609C86.023 82.2369 85.983 81.2129 85.935 80.1889C86.655 80.2209 87.367 80.2529 88.071 80.2849C88.791 80.3009 89.511 80.3089 90.231 80.3089C90.951 80.3089 91.663 80.3009 92.367 80.2849C93.071 80.2529 93.783 80.2209 94.503 80.1889C94.455 80.4289 94.431 80.6689 94.431 80.9089C94.431 81.1489 94.455 81.3889 94.503 81.6289C93.991 81.5969 93.519 81.5649 93.087 81.5329C92.671 81.5009 92.223 81.4689 91.743 81.4369C91.279 81.4049 90.767 81.3809 90.207 81.3649C89.647 81.3329 88.975 81.3169 88.191 81.3169C88.175 81.8289 88.151 82.3169 88.119 82.7809C88.103 83.2449 88.095 83.7729 88.095 84.3649C88.095 84.9889 88.095 85.5969 88.095 86.1889C88.111 86.7809 88.119 87.2289 88.119 87.5329C88.823 87.5329 89.455 87.5249 90.015 87.5089C90.575 87.4929 91.087 87.4769 91.551 87.4609C92.015 87.4289 92.439 87.4049 92.823 87.3889C93.223 87.3569 93.599 87.3249 93.951 87.2929C93.903 87.5329 93.879 87.7809 93.879 88.0369C93.879 88.2769 93.903 88.5169 93.951 88.7569C93.535 88.7089 93.047 88.6689 92.487 88.6369C91.943 88.6049 91.391 88.5889 90.831 88.5889C90.287 88.5729 89.767 88.5649 89.271 88.5649C88.791 88.5489 88.407 88.5409 88.119 88.5409C88.119 88.6849 88.111 88.8449 88.095 89.0209C88.095 89.1809 88.095 89.3889 88.095 89.6449V90.5809V92.0209C88.095 92.9329 88.095 93.6849 88.095 94.2769C88.111 94.8689 88.127 95.3169 88.143 95.6209C88.671 95.6209 89.231 95.6209 89.823 95.6209C90.431 95.6209 91.023 95.6129 91.599 95.5969C92.191 95.5649 92.743 95.5329 93.255 95.5009C93.783 95.4529 94.239 95.3889 94.623 95.3089C94.591 95.4209 94.567 95.5489 94.551 95.6929C94.551 95.8209 94.551 95.9409 94.551 96.0529C94.551 96.3089 94.575 96.5169 94.623 96.6769C93.903 96.6449 93.183 96.6289 92.463 96.6289C91.759 96.6289 91.039 96.6289 90.303 96.6289C89.567 96.6289 88.839 96.6289 88.119 96.6289C87.399 96.6289 86.671 96.6449 85.935 96.6769C85.983 95.6529 86.023 94.6369 86.055 93.6289C86.103 92.6049 86.127 91.5649 86.127 90.5089V86.3809ZM98.607 86.4049C98.607 85.3489 98.583 84.3169 98.535 83.3089C98.503 82.2849 98.463 81.2449 98.415 80.1889C98.879 80.2209 99.335 80.2529 99.783 80.2849C100.231 80.3009 100.687 80.3089 101.151 80.3089C101.615 80.3089 102.071 80.2929 102.519 80.2609C102.967 80.2129 103.423 80.1889 103.887 80.1889C104.559 80.1889 105.199 80.2529 105.807 80.3809C106.415 80.5089 106.943 80.7249 107.391 81.0289C107.855 81.3169 108.215 81.7009 108.471 82.1809C108.743 82.6609 108.879 83.2609 108.879 83.9809C108.879 84.7489 108.703 85.4129 108.351 85.9729C108.015 86.5169 107.599 86.9729 107.103 87.3409C106.607 87.6929 106.071 87.9729 105.495 88.1809C104.935 88.3729 104.423 88.5009 103.959 88.5649C104.151 88.8049 104.415 89.1409 104.751 89.5729C105.087 90.0049 105.463 90.4849 105.879 91.0129C106.295 91.5249 106.727 92.0689 107.175 92.6449C107.623 93.2049 108.055 93.7489 108.471 94.2769C108.887 94.7889 109.279 95.2609 109.647 95.6929C110.015 96.1249 110.311 96.4529 110.535 96.6769C110.295 96.6449 110.055 96.6289 109.815 96.6289C109.575 96.6289 109.335 96.6289 109.095 96.6289C108.871 96.6289 108.639 96.6289 108.399 96.6289C108.159 96.6289 107.927 96.6449 107.703 96.6769C107.463 96.3409 107.095 95.8369 106.599 95.1649C106.119 94.4929 105.583 93.7729 104.991 93.0049C104.399 92.2369 103.791 91.4769 103.167 90.7249C102.559 89.9569 101.999 89.3089 101.487 88.7809H100.575V90.5329C100.575 91.5889 100.591 92.6289 100.623 93.6529C100.671 94.6769 100.719 95.6849 100.767 96.6769C100.399 96.6449 100.007 96.6289 99.591 96.6289C99.175 96.6289 98.783 96.6449 98.415 96.6769C98.463 95.6849 98.503 94.6769 98.535 93.6529C98.583 92.6289 98.607 91.5889 98.607 90.5329V86.4049ZM100.575 87.7729C100.799 87.8209 101.039 87.8529 101.295 87.8689C101.567 87.8849 101.863 87.8929 102.183 87.8929C102.679 87.8929 103.191 87.8369 103.719 87.7249C104.263 87.6129 104.759 87.4209 105.207 87.1489C105.655 86.8609 106.023 86.4849 106.311 86.0209C106.615 85.5409 106.767 84.9409 106.767 84.2209C106.767 83.5969 106.647 83.0849 106.407 82.6849C106.183 82.2689 105.887 81.9409 105.519 81.7009C105.151 81.4609 104.751 81.3009 104.319 81.2209C103.887 81.1249 103.463 81.0769 103.047 81.0769C102.487 81.0769 102.023 81.0929 101.655 81.1249C101.287 81.1409 100.975 81.1649 100.719 81.1969C100.687 82.0769 100.655 82.9489 100.623 83.8129C100.591 84.6769 100.575 85.5409 100.575 86.4049V87.7729ZM122.239 92.5729C122.239 93.0049 122.327 93.4289 122.503 93.8449C122.679 94.2449 122.919 94.6049 123.223 94.9249C123.543 95.2289 123.919 95.4769 124.351 95.6689C124.783 95.8449 125.255 95.9329 125.767 95.9329C126.583 95.9329 127.279 95.7889 127.855 95.5009C128.431 95.1969 128.999 94.7649 129.559 94.2049C128.743 93.2449 127.967 92.2929 127.231 91.3489C126.495 90.4049 125.767 89.4289 125.047 88.4209C124.167 88.9489 123.479 89.5249 122.983 90.1489C122.487 90.7729 122.239 91.5809 122.239 92.5729ZM123.031 84.1009C123.031 83.5889 123.119 83.1169 123.295 82.6849C123.487 82.2529 123.743 81.8769 124.063 81.5569C124.399 81.2209 124.791 80.9649 125.239 80.7889C125.687 80.5969 126.183 80.5009 126.727 80.5009C127.655 80.5009 128.415 80.7329 129.007 81.1969C129.615 81.6449 129.919 82.3089 129.919 83.1889C129.919 83.6369 129.815 84.0689 129.607 84.4849C129.399 84.9009 129.127 85.2929 128.791 85.6609C128.471 86.0129 128.119 86.3409 127.735 86.6449C127.351 86.9329 126.983 87.1809 126.631 87.3889C127.351 88.3169 128.055 89.2289 128.743 90.1249C129.431 91.0049 130.135 91.8369 130.855 92.6209C131.431 91.8049 131.951 91.0289 132.415 90.2929C132.895 89.5409 133.327 88.7329 133.711 87.8689C133.807 88.0769 133.935 88.2609 134.095 88.4209C134.271 88.5649 134.447 88.7009 134.623 88.8289C134.127 89.5969 133.631 90.3409 133.135 91.0609C132.639 91.7809 132.055 92.5249 131.383 93.2929L134.455 96.6769C134.199 96.6449 133.943 96.6289 133.687 96.6289C133.431 96.6289 133.175 96.6289 132.919 96.6289C132.695 96.6289 132.463 96.6289 132.223 96.6289C131.999 96.6289 131.775 96.6449 131.551 96.6769C131.423 96.5009 131.223 96.2369 130.951 95.8849C130.695 95.5169 130.391 95.1249 130.039 94.7089C129.335 95.4129 128.575 95.9729 127.759 96.3889C126.959 96.7889 125.991 96.9889 124.855 96.9889C124.231 96.9889 123.639 96.9089 123.079 96.7489C122.535 96.6049 122.055 96.3649 121.639 96.0289C121.223 95.6929 120.887 95.2769 120.631 94.7809C120.391 94.2689 120.271 93.6769 120.271 93.0049C120.271 92.4769 120.383 91.9649 120.607 91.4689C120.831 90.9569 121.135 90.4769 121.519 90.0289C121.919 89.5649 122.383 89.1489 122.911 88.7809C123.439 88.4129 124.015 88.1009 124.639 87.8449C124.175 87.1729 123.791 86.5329 123.487 85.9249C123.183 85.3169 123.031 84.7089 123.031 84.1009ZM128.671 83.1649C128.671 82.5889 128.495 82.1169 128.143 81.7489C127.807 81.3649 127.343 81.1729 126.751 81.1729C126.127 81.1729 125.631 81.3889 125.263 81.8209C124.895 82.2529 124.711 82.7889 124.711 83.4289C124.711 83.9089 124.847 84.4689 125.119 85.1089C125.407 85.7489 125.775 86.3409 126.223 86.8849C127.039 86.3729 127.647 85.7809 128.047 85.1089C128.463 84.4209 128.671 83.7729 128.671 83.1649ZM159.391 96.9889C157.551 94.8609 155.591 92.6849 153.511 90.4609C151.431 88.2209 149.351 85.9969 147.271 83.7889C147.255 84.2369 147.239 84.8369 147.223 85.5889C147.207 86.3409 147.199 87.3649 147.199 88.6609C147.199 88.9969 147.199 89.4129 147.199 89.9089C147.215 90.4049 147.223 90.9249 147.223 91.4689C147.239 92.0129 147.255 92.5649 147.271 93.1249C147.287 93.6849 147.303 94.2049 147.319 94.6849C147.335 95.1649 147.351 95.5889 147.367 95.9569C147.383 96.3089 147.399 96.5489 147.415 96.6769C147.159 96.6449 146.879 96.6289 146.575 96.6289C146.255 96.6289 145.959 96.6449 145.687 96.6769C145.719 96.5169 145.751 96.2209 145.783 95.7889C145.831 95.3569 145.871 94.8449 145.903 94.2529C145.935 93.6449 145.967 92.9889 145.999 92.2849C146.047 91.5809 146.079 90.8769 146.095 90.1729C146.127 89.4689 146.151 88.7809 146.167 88.1089C146.183 87.4369 146.191 86.8369 146.191 86.3089C146.191 84.7729 146.183 83.4529 146.167 82.3489C146.167 81.2449 146.151 80.4209 146.119 79.8769H146.503C147.479 80.9329 148.519 82.0689 149.623 83.2849C150.743 84.4849 151.847 85.6769 152.935 86.8609C154.039 88.0289 155.079 89.1409 156.055 90.1969C157.047 91.2369 157.911 92.1249 158.647 92.8609V89.5969C158.647 87.9169 158.631 86.2849 158.599 84.7009C158.583 83.1009 158.535 81.5969 158.455 80.1889C158.775 80.2689 159.047 80.3089 159.271 80.3089C159.463 80.3089 159.719 80.2689 160.039 80.1889C160.007 80.5409 159.967 81.0689 159.919 81.7729C159.887 82.4769 159.847 83.2289 159.799 84.0289C159.767 84.8289 159.735 85.6129 159.703 86.3809C159.671 87.1489 159.655 87.7649 159.655 88.2289C159.655 88.6289 159.655 89.1089 159.655 89.6689C159.655 90.2129 159.655 90.7809 159.655 91.3729C159.671 91.9649 159.679 92.5649 159.679 93.1729C159.695 93.7649 159.703 94.3249 159.703 94.8529C159.719 95.3649 159.727 95.8129 159.727 96.1969C159.727 96.5489 159.727 96.8129 159.727 96.9889H159.391ZM165.038 86.4049C165.038 85.3489 165.014 84.3169 164.966 83.3089C164.934 82.2849 164.894 81.2449 164.846 80.1889C165.054 80.2209 165.254 80.2529 165.446 80.2849C165.638 80.3009 165.83 80.3089 166.022 80.3089C166.214 80.3089 166.406 80.3009 166.598 80.2849C166.79 80.2529 166.99 80.2209 167.198 80.1889C167.15 81.2449 167.102 82.2849 167.054 83.3089C167.022 84.3169 167.006 85.3489 167.006 86.4049V90.5329C167.006 91.5889 167.022 92.6289 167.054 93.6529C167.102 94.6769 167.15 95.6849 167.198 96.6769C166.83 96.6449 166.438 96.6289 166.022 96.6289C165.606 96.6289 165.214 96.6449 164.846 96.6769C164.894 95.6849 164.934 94.6769 164.966 93.6529C165.014 92.6289 165.038 91.5889 165.038 90.5329V86.4049ZM184.606 95.6929C184.462 95.8209 184.23 95.9649 183.91 96.1249C183.606 96.2689 183.23 96.4049 182.782 96.5329C182.35 96.6449 181.862 96.7489 181.318 96.8449C180.774 96.9409 180.206 96.9889 179.614 96.9889C178.35 96.9889 177.182 96.8129 176.11 96.4609C175.038 96.0929 174.11 95.5409 173.326 94.8049C172.558 94.0689 171.95 93.1729 171.502 92.1169C171.07 91.0449 170.854 89.8289 170.854 88.4689C170.854 87.1089 171.07 85.9009 171.502 84.8449C171.95 83.7729 172.566 82.8689 173.35 82.1329C174.15 81.3969 175.102 80.8369 176.206 80.4529C177.31 80.0689 178.526 79.8769 179.854 79.8769C180.91 79.8769 181.87 79.9889 182.734 80.2129C183.614 80.4209 184.39 80.6769 185.062 80.9809C184.934 81.2049 184.83 81.5089 184.75 81.8929C184.67 82.2769 184.606 82.5969 184.558 82.8529L184.414 82.9009C184.254 82.7089 184.03 82.4929 183.742 82.2529C183.454 82.0129 183.118 81.7809 182.734 81.5569C182.35 81.3329 181.918 81.1489 181.438 81.0049C180.958 80.8449 180.43 80.7649 179.854 80.7649C178.91 80.7649 178.03 80.9169 177.214 81.2209C176.414 81.5249 175.71 81.9969 175.102 82.6369C174.51 83.2609 174.046 84.0609 173.71 85.0369C173.374 85.9969 173.206 87.1409 173.206 88.4689C173.206 89.7969 173.374 90.9489 173.71 91.9249C174.046 92.8849 174.51 93.6849 175.102 94.3249C175.71 94.9489 176.414 95.4129 177.214 95.7169C178.03 96.0209 178.91 96.1729 179.854 96.1729C180.43 96.1729 180.958 96.1009 181.438 95.9569C181.934 95.8129 182.382 95.6449 182.782 95.4529C183.198 95.2449 183.566 95.0289 183.886 94.8049C184.222 94.5649 184.502 94.3569 184.726 94.1809L184.822 94.2769L184.606 95.6929ZM187.342 88.4689C187.342 87.1089 187.558 85.9009 187.99 84.8449C188.438 83.7729 189.054 82.8689 189.838 82.1329C190.638 81.3969 191.59 80.8369 192.694 80.4529C193.798 80.0689 195.006 79.8769 196.318 79.8769C197.646 79.8769 198.862 80.0689 199.966 80.4529C201.07 80.8369 202.014 81.3969 202.798 82.1329C203.598 82.8689 204.214 83.7729 204.646 84.8449C205.094 85.9009 205.318 87.1089 205.318 88.4689C205.318 89.8289 205.094 91.0449 204.646 92.1169C204.214 93.1729 203.598 94.0689 202.798 94.8049C202.014 95.5409 201.07 96.0929 199.966 96.4609C198.862 96.8129 197.646 96.9889 196.318 96.9889C195.006 96.9889 193.798 96.8129 192.694 96.4609C191.59 96.0929 190.638 95.5409 189.838 94.8049C189.054 94.0689 188.438 93.1729 187.99 92.1169C187.558 91.0449 187.342 89.8289 187.342 88.4689ZM202.966 88.4689C202.966 87.1409 202.798 85.9969 202.462 85.0369C202.126 84.0609 201.654 83.2609 201.046 82.6369C200.454 81.9969 199.75 81.5249 198.934 81.2209C198.134 80.9169 197.262 80.7649 196.318 80.7649C195.39 80.7649 194.518 80.9169 193.702 81.2209C192.902 81.5249 192.198 81.9969 191.59 82.6369C190.998 83.2609 190.534 84.0609 190.198 85.0369C189.862 85.9969 189.694 87.1409 189.694 88.4689C189.694 89.7969 189.862 90.9489 190.198 91.9249C190.534 92.8849 190.998 93.6849 191.59 94.3249C192.198 94.9489 192.902 95.4129 193.702 95.7169C194.518 96.0209 195.39 96.1729 196.318 96.1729C197.262 96.1729 198.134 96.0209 198.934 95.7169C199.75 95.4129 200.454 94.9489 201.046 94.3249C201.654 93.6849 202.126 92.8849 202.462 91.9249C202.798 90.9489 202.966 89.7969 202.966 88.4689ZM209.158 86.4049C209.158 85.3489 209.134 84.3169 209.086 83.3089C209.054 82.2849 209.014 81.2449 208.966 80.1889C209.43 80.2209 209.886 80.2529 210.334 80.2849C210.782 80.3009 211.238 80.3089 211.702 80.3089C212.166 80.3089 212.622 80.2929 213.07 80.2609C213.518 80.2129 213.974 80.1889 214.438 80.1889C215.11 80.1889 215.75 80.2529 216.358 80.3809C216.966 80.5089 217.494 80.7249 217.942 81.0289C218.406 81.3169 218.766 81.7009 219.022 82.1809C219.294 82.6609 219.43 83.2609 219.43 83.9809C219.43 84.7489 219.254 85.4129 218.902 85.9729C218.566 86.5169 218.15 86.9729 217.654 87.3409C217.158 87.6929 216.622 87.9729 216.046 88.1809C215.486 88.3729 214.974 88.5009 214.51 88.5649C214.702 88.8049 214.966 89.1409 215.302 89.5729C215.638 90.0049 216.014 90.4849 216.43 91.0129C216.846 91.5249 217.278 92.0689 217.726 92.6449C218.174 93.2049 218.606 93.7489 219.022 94.2769C219.438 94.7889 219.83 95.2609 220.198 95.6929C220.566 96.1249 220.862 96.4529 221.086 96.6769C220.846 96.6449 220.606 96.6289 220.366 96.6289C220.126 96.6289 219.886 96.6289 219.646 96.6289C219.422 96.6289 219.19 96.6289 218.95 96.6289C218.71 96.6289 218.478 96.6449 218.254 96.6769C218.014 96.3409 217.646 95.8369 217.15 95.1649C216.67 94.4929 216.134 93.7729 215.542 93.0049C214.95 92.2369 214.342 91.4769 213.718 90.7249C213.11 89.9569 212.55 89.3089 212.038 88.7809H211.126V90.5329C211.126 91.5889 211.142 92.6289 211.174 93.6529C211.222 94.6769 211.27 95.6849 211.318 96.6769C210.95 96.6449 210.558 96.6289 210.142 96.6289C209.726 96.6289 209.334 96.6449 208.966 96.6769C209.014 95.6849 209.054 94.6769 209.086 93.6529C209.134 92.6289 209.158 91.5889 209.158 90.5329V86.4049ZM211.126 87.7729C211.35 87.8209 211.59 87.8529 211.846 87.8689C212.118 87.8849 212.414 87.8929 212.734 87.8929C213.23 87.8929 213.742 87.8369 214.27 87.7249C214.814 87.6129 215.31 87.4209 215.758 87.1489C216.206 86.8609 216.574 86.4849 216.862 86.0209C217.166 85.5409 217.318 84.9409 217.318 84.2209C217.318 83.5969 217.198 83.0849 216.958 82.6849C216.734 82.2689 216.438 81.9409 216.07 81.7009C215.702 81.4609 215.302 81.3009 214.87 81.2209C214.438 81.1249 214.014 81.0769 213.598 81.0769C213.038 81.0769 212.574 81.0929 212.206 81.1249C211.838 81.1409 211.526 81.1649 211.27 81.1969C211.238 82.0769 211.206 82.9489 211.174 83.8129C211.142 84.6769 211.126 85.5409 211.126 86.4049V87.7729ZM226.926 89.2129C227.342 89.2129 227.774 89.2209 228.222 89.2369C228.67 89.2529 229.102 89.2609 229.518 89.2609C229.966 89.2609 230.414 89.2609 230.862 89.2609C231.31 89.2449 231.758 89.2289 232.206 89.2129L229.542 83.1169L226.926 89.2129ZM237.558 96.6769C237.334 96.6449 237.118 96.6289 236.91 96.6289C236.718 96.6289 236.51 96.6289 236.286 96.6289C236.062 96.6289 235.846 96.6289 235.638 96.6289C235.446 96.6289 235.238 96.6449 235.014 96.6769C234.902 96.3089 234.75 95.8689 234.558 95.3569C234.366 94.8289 234.15 94.2849 233.91 93.7249C233.686 93.1489 233.454 92.5729 233.214 91.9969C232.974 91.4049 232.75 90.8449 232.542 90.3169C232.03 90.3009 231.51 90.2929 230.982 90.2929C230.454 90.2769 229.926 90.2689 229.398 90.2689C228.902 90.2689 228.414 90.2769 227.934 90.2929C227.454 90.2929 226.966 90.3009 226.47 90.3169C225.958 91.5649 225.494 92.7569 225.078 93.8929C224.662 95.0129 224.35 95.9409 224.142 96.6769C223.87 96.6449 223.574 96.6289 223.254 96.6289C222.934 96.6289 222.638 96.6449 222.366 96.6769C223.662 93.8769 224.926 91.0929 226.158 88.3249C227.39 85.5569 228.63 82.7409 229.878 79.8769H230.334C230.718 80.8049 231.134 81.8129 231.582 82.9009C232.03 83.9729 232.486 85.0609 232.95 86.1649C233.414 87.2689 233.878 88.3649 234.342 89.4529C234.806 90.5409 235.238 91.5569 235.638 92.5009C236.054 93.4289 236.422 94.2609 236.742 94.9969C237.078 95.7329 237.35 96.2929 237.558 96.6769Z" fill="var(--secondary)"/>
</svg>
